# xmcd
#
# Track frame offsets: 
#        150
#        16003
#        35305
#        50922
#        61617
#        73561
#        86721
#        103808
#        119249
#        130033
#        140702
#        158283
#        168374
#        183123
#        194353
#
# Disc length: 2743 seconds
#
# Revision: 0
# Processed by: cddbd v1.5.2PL0 Copyright (c) Steve Scherf et al.
# Submitted via: ExactAudioCopy v1.1
#
DISCID=c80ab50f
DTITLE=Jackie Wilson - Soul Time
DYEAR=1965
DGENRE=R&B
TTITLE0=No Pity (In The Naked City)
TTITLE1=Danny Boy
TTITLE2=An Ocean I'll Cry
TTITLE3=Soul Time
TTITLE4=Teardrop Avenue
TTITLE5=She'll Be There
TTITLE6=Star Dust
TTITLE7=A Kiss, A Thrill And Goodbye
TTITLE8=Mama Of My Song
TTITLE9=She's All Right
TTITLE10=Better Play It Safe
TTITLE11=No Time Out
TTITLE12=I Believe I'll Love On (Bonus Track)
TTITLE13=I'm So Lonely (Bonus Track)
TTITLE14=Think Twice (Unleased Version) (Duet With LaVern Baker)
EXTD=
EXTT0=
EXTT1=
EXTT2=
EXTT3=
EXTT4=
EXTT5=
EXTT6=
EXTT7=
EXTT8=
EXTT9=
EXTT10=
EXTT11=
EXTT12=
EXTT13=
EXTT14=
PLAYORDER=
